<svg width="500" height="502" viewBox="0 0 500 502" fill="none" xmlns="http://www.w3.org/2000/svg">
<path d="M473.952 275.255C489.835 260.864 500 238.425 500 213.547C499.788 177.206 478.187 146.474 449.174 137.45C442.609 123.791 443 122.108 434.5 110.608C426 98.1084 427 98.6084 418.5 88.6084C416 85.6672 408.5 77.5 407 75.5C404 81.5 396 101 367 113.5C350.5 120.612 327 124.468 297 106C275.07 92.5 258 60.5 265.5 29.5C269.633 12.4186 274 7.0122 277.5 1.1084C272.5 0.620597 275.458 1.10841 261.5 1.10841C257.688 0.864504 253.706 1.1084 249.894 1.1084C164.126 1.1084 89.1571 56.2304 50.6142 137.45C21.3893 146.474 0 177.206 0 213.547C0 238.669 10.1652 260.864 26.0483 275.255C32.4015 281.108 39.8136 285.743 47.6493 288.669H59.7205H451.292H452.351C460.398 285.743 467.598 281.108 473.952 275.255Z" fill="#8FE388"/>
<path d="M415.255 479.889L451.292 288.669H59.7205L89.7573 479.889C91.875 492.328 101.193 501.108 112.205 501.108H392.807C403.819 501.108 413.137 492.328 415.255 479.889Z" fill="#FF99B2"/>
</svg>
