<svg width="1161" height="520" viewBox="0 0 1161 520" fill="none" xmlns="http://www.w3.org/2000/svg">
<path d="M287.68 520C272.08 520 256.653 515.493 241.4 506.48C226.493 497.813 207.427 484.293 184.2 465.92C166.867 452.053 151.96 440.787 139.48 432.12C127.347 423.8 114 416.693 99.44 410.8C85.2267 404.907 70.6667 401.96 55.76 401.96C50.56 401.96 46.5733 402.133 43.8 402.48L121.28 42.12C98.0533 51.48 80.0267 65.8667 67.2 85.28C54.72 104.347 48.48 127.747 48.48 155.48C48.48 168.307 49.6933 177.32 52.12 182.52C54.5467 187.373 55.76 190.147 55.76 190.84C37.04 190.84 23 187.027 13.64 179.4C4.62667 171.427 0.12 158.427 0.12 140.4C0.12 118.213 9.13333 96.72 27.16 75.92C45.5333 54.7733 68.9333 37.7867 97.36 24.96C125.787 11.7867 154.213 5.2 182.64 5.2C187.493 5.2 194.427 5.54666 203.44 6.23998L123.36 379.6C133.067 382.027 142.947 385.493 153 390C163.4 394.853 175.88 401.267 190.44 409.24C212.973 421.373 232.213 430.56 248.16 436.8C264.107 443.387 280.747 446.68 298.08 446.68C313.68 446.68 328.24 443.907 341.76 438.36C338.987 463.667 332.747 483.6 323.04 498.16C313.68 512.72 301.893 520 287.68 520ZM255.911 393.12C239.271 393.12 225.751 387.92 215.351 377.52C205.298 367.12 200.271 351.52 200.271 330.72C200.271 322.053 201.658 310.787 204.431 296.92L239.791 130H314.671L277.231 306.8C276.191 312 275.671 316.853 275.671 321.36C275.671 335.573 280.871 342.68 291.271 342.68C300.978 342.68 309.298 338.693 316.231 330.72C323.165 322.4 328.711 311.133 332.871 296.92L368.231 130H443.111L405.671 306.8C404.285 312 403.591 317.547 403.591 323.44C403.591 330.373 405.151 335.4 408.271 338.52C411.738 341.293 417.285 342.68 424.911 342.68C434.618 342.68 442.938 338.52 449.871 330.2C457.151 321.88 462.871 310.787 467.031 296.92H488.871C476.045 334.36 460.098 359.84 441.031 373.36C422.311 386.533 403.418 393.12 384.351 393.12C369.445 393.12 357.485 388.96 348.471 380.64C339.805 372.32 334.605 360.013 332.871 343.72C321.085 362.787 308.605 375.787 295.431 382.72C282.605 389.653 269.431 393.12 255.911 393.12ZM862.276 101.92C850.836 101.92 841.129 97.9333 833.156 89.96C825.183 81.9867 821.196 72.28 821.196 60.84C821.196 49.4 825.183 39.6933 833.156 31.72C841.129 23.4 850.836 19.24 862.276 19.24C873.716 19.24 883.423 23.4 891.396 31.72C899.716 39.6933 903.876 49.4 903.876 60.84C903.876 72.28 899.716 81.9867 891.396 89.96C883.423 97.9333 873.716 101.92 862.276 101.92ZM826.916 393.12C810.276 393.12 796.756 387.92 786.356 377.52C776.303 367.12 771.276 351.52 771.276 330.72C771.276 322.053 772.663 310.787 775.436 296.92L810.796 130H885.676L848.236 306.8C846.849 312 846.156 317.547 846.156 323.44C846.156 330.373 847.716 335.4 850.836 338.52C854.303 341.293 859.849 342.68 867.476 342.68C877.529 342.68 886.889 338.52 895.556 330.2C904.223 321.533 910.463 310.44 914.276 296.92H936.116C923.289 334.36 906.823 359.84 886.716 373.36C866.609 386.533 846.676 393.12 826.916 393.12ZM1103.35 393.12C1084.98 393.12 1071.63 387.573 1063.31 376.48C1054.99 365.387 1050.83 351.347 1050.83 334.36C1050.83 327.08 1051.7 318.933 1053.43 309.92C1055.16 300.56 1056.9 291.547 1058.63 282.88C1060.71 274.213 1062.1 268.667 1062.79 266.24C1065.56 254.107 1068.16 242.147 1070.59 230.36C1073.02 218.573 1074.23 209.04 1074.23 201.76C1074.23 184.08 1067.99 175.24 1055.51 175.24C1046.5 175.24 1038.52 179.747 1031.59 188.76C1024.66 197.427 1019.11 208.867 1014.95 223.08L979.589 390H904.709L959.829 130H1034.71L1028.99 157.04C1046.32 137.627 1066.6 127.92 1089.83 127.92C1107.51 127.92 1121.55 132.773 1131.95 142.48C1142.35 152.187 1147.55 166.92 1147.55 186.68C1147.55 196.733 1146.34 208 1143.91 220.48C1141.48 232.613 1138.02 247.52 1133.51 265.2C1130.74 275.947 1128.14 286.52 1125.71 296.92C1123.63 306.973 1122.59 314.947 1122.59 320.84C1122.59 327.773 1124.15 333.147 1127.27 336.96C1130.39 340.773 1135.76 342.68 1143.39 342.68C1151.71 342.68 1157.43 341.64 1160.55 339.56C1158.47 357.24 1152.06 370.587 1141.31 379.6C1130.91 388.613 1118.26 393.12 1103.35 393.12Z" fill="white"/>
<path d="M430.57 520C414.277 520 400.064 514.627 387.93 503.88C375.45 493.48 369.21 480.133 369.21 463.84C369.21 448.933 373.024 436.627 380.65 426.92C388.277 417.213 398.157 409.413 410.29 403.52C422.424 397.973 438.544 392.08 458.65 385.84L521.57 88.92C528.504 55.64 540.637 32.5867 557.97 19.76C575.65 6.93333 595.064 0.519993 616.21 0.519993C632.504 0.519993 646.717 5.89332 658.85 16.64C671.33 27.04 677.57 40.3867 677.57 56.68C677.57 64.6533 677.05 71.76 676.01 78H651.57C652.264 70.3733 652.61 65.6933 652.61 63.96C652.61 58.4133 650.704 54.08 646.89 50.96C643.077 47.84 638.397 46.28 632.85 46.28C625.57 46.28 618.464 49.5733 611.53 56.16C604.597 62.4 599.57 73.32 596.45 88.92L587.61 130H625.57L621.93 150.8H583.45L523.65 431.6C516.717 465.227 504.757 488.28 487.77 500.76C470.784 513.587 451.717 520 430.57 520ZM418.61 473.72C432.477 473.72 442.357 460.2 448.25 433.16L455.01 403C436.637 409.24 422.597 416.347 412.89 424.32C402.837 432.64 397.81 443.387 397.81 456.56C397.81 460.72 399.89 464.533 404.05 468C408.21 471.813 413.064 473.72 418.61 473.72Z" fill="#FF99B2"/>
<path d="M579.603 520C563.31 520 549.096 514.627 536.963 503.88C524.483 493.48 518.243 480.133 518.243 463.84C518.243 448.933 522.056 436.627 529.683 426.92C537.31 417.213 547.19 409.413 559.323 403.52C571.456 397.973 587.576 392.08 607.683 385.84L670.603 88.92C677.536 55.64 689.67 32.5867 707.003 19.76C724.683 6.93333 744.096 0.519993 765.243 0.519993C781.536 0.519993 795.75 5.89332 807.883 16.64C820.363 27.04 826.603 40.3867 826.603 56.68C826.603 64.6533 826.083 71.76 825.043 78H800.603C801.296 70.3733 801.643 65.6933 801.643 63.96C801.643 58.4133 799.736 54.08 795.923 50.96C792.11 47.84 787.43 46.28 781.883 46.28C774.603 46.28 767.496 49.5733 760.563 56.16C753.63 62.4 748.603 73.32 745.483 88.92L736.643 130H774.603L770.963 150.8H732.483L672.683 431.6C665.75 465.227 653.79 488.28 636.803 500.76C619.816 513.587 600.75 520 579.603 520ZM567.643 473.72C581.51 473.72 591.39 460.2 597.283 433.16L604.043 403C585.67 409.24 571.63 416.347 561.923 424.32C551.87 432.64 546.843 443.387 546.843 456.56C546.843 460.72 548.923 464.533 553.083 468C557.243 471.813 562.096 473.72 567.643 473.72Z" fill="#8FE388"/>
</svg>
